<?xml version="1.0" standalone="no"?><!DOCTYPE svg PUBLIC "-//W3C//DTD SVG 1.1//EN" "http://www.w3.org/Graphics/SVG/1.1/DTD/svg11.dtd"><svg t="1740625839289" class="icon" viewBox="0 0 1024 1024" version="1.1" xmlns="http://www.w3.org/2000/svg" p-id="29887" xmlns:xlink="http://www.w3.org/1999/xlink" width="256" height="256"><path d="M406.410019 486.994914H73.640077a63.993989 63.993989 0 0 1-63.993989-67.193988V86.391985A63.993989 63.993989 0 0 1 73.640077 22.397996h332.769942a63.993989 63.993989 0 0 1 67.193988 63.993989v333.409941a63.993989 63.993989 0 0 1-67.193988 67.192988z m0-400.602929H76.840076l3.84 330.209942h325.729943z m0 330.209942z m361.565936 87.031984a63.993989 63.993989 0 0 1-46.714992-19.198996L536.317996 299.491947a63.993989 63.993989 0 0 1 0-92.790983L720.619963 21.757996a63.993989 63.993989 0 0 1 92.790984 0l184.302968 184.942968a63.993989 63.993989 0 0 1 0 92.790983L813.411947 484.434915a63.993989 63.993989 0 0 1-45.435992 19.198996zM589.432986 255.975955L767.975955 431.319924 945.239924 255.975955 767.975955 74.872987z m-183.022967 767.929865H73.640077a63.993989 63.993989 0 0 1-63.993989-67.193988V620.742891a63.993989 63.993989 0 0 1 63.993989-63.993989h332.769942a63.993989 63.993989 0 0 1 67.193988 63.993989v333.409941a63.993989 63.993989 0 0 1-67.193988 69.752988z m0-400.60293l-329.569943 3.2 3.84 330.209942 325.729943-3.2z m0 330.209942z m527.310907 70.392988h-333.409942a63.993989 63.993989 0 0 1-63.992988-67.193988V620.742891a63.993989 63.993989 0 0 1 63.993988-63.993989h333.409942a63.993989 63.993989 0 0 1 63.992989 63.993989v333.409941a63.993989 63.993989 0 0 1-63.993989 69.752988z m-3.839999-403.162929l-329.569943 3.199999 3.84 330.209942 325.729943-3.199999z m3.839999 330.209942z" p-id="29888"></path></svg>