<?xml version="1.0" standalone="no"?><!DOCTYPE svg PUBLIC "-//W3C//DTD SVG 1.1//EN" "http://www.w3.org/Graphics/SVG/1.1/DTD/svg11.dtd"><svg t="1740660319542" class="icon" viewBox="0 0 1024 1024" version="1.1" xmlns="http://www.w3.org/2000/svg" p-id="17568" xmlns:xlink="http://www.w3.org/1999/xlink" width="256" height="256"><path d="M738.496 207.52L694.72 251.296a96 96 0 0 1-87.84 26.016l-62.048-13.184a32 32 0 0 0-29.28 8.672l-18.24 18.24a32 32 0 0 0 0 45.248l61.056 61.056 2.432 2.56 76.256 76.256c0.864 0.8 1.728 1.6 2.56 2.464l61.056 61.024a32 32 0 0 0 45.248 0l18.24-18.24a32 32 0 0 0 8.672-29.28l-13.184-62.016a96 96 0 0 1 26.016-87.872l43.808-43.776a32 32 0 0 0 0-45.248l-45.696-45.696a32 32 0 0 0-45.28 0z m-281.248 179.2l-5.184-5.152a96 96 0 0 1 0-135.776l18.24-18.24a96 96 0 0 1 87.84-26.016l62.048 13.184a32 32 0 0 0 29.28-8.672l43.776-43.776a96 96 0 0 1 135.776 0l45.696 45.696a96 96 0 0 1 0 135.744l-43.808 43.808a32 32 0 0 0-8.64 29.28l13.184 62.016a96 96 0 0 1-26.048 87.872l-18.24 18.24a96 96 0 0 1-135.744 0l-5.184-5.216-266.08 266.112a64 64 0 0 1-29.792 16.832l-136.48 34.016c-46.848 11.648-89.248-30.72-77.568-77.6l34.016-136.448a64 64 0 0 1 16.832-29.792l266.08-266.08z m57.28 57.44l-12.064-12.096-266.048 266.016-33.984 136.48 136.48-34.016 266.016-266.016-12.096-12.096a115.552 115.552 0 0 0-5.248-4.128l-3.104-2.368a96.288 96.288 0 0 1-9.44-8.32l-45.696-45.664a96.224 96.224 0 0 1-10.656-12.544c-1.856-2.432-3.04-4-4.16-5.248z" fill="#515151" p-id="17569"></path></svg>