<?xml version="1.0" standalone="no"?><!DOCTYPE svg PUBLIC "-//W3C//DTD SVG 1.1//EN" "http://www.w3.org/Graphics/SVG/1.1/DTD/svg11.dtd"><svg t="1740659880667" class="icon" viewBox="0 0 1024 1024" version="1.1" xmlns="http://www.w3.org/2000/svg" p-id="13696" xmlns:xlink="http://www.w3.org/1999/xlink" width="256" height="256"><path d="M405.333333 430.933333l136.533334-136.533333-29.866667-29.866667L605.866667 170.666667l273.066666 273.066666-89.6 89.6-29.866666-29.866666-140.8 136.533333 59.733333 59.733333-89.6 89.6L256 460.8l89.6-89.6 59.733333 59.733333z m-89.6 29.866667l273.066667 273.066667 29.866667-29.866667-59.733334-64 200.533334-200.533333 29.866666 29.866666 29.866667-29.866666-209.066667-209.066667-29.866666 29.866667 29.866666 29.866666-200.533333 200.533334-59.733333-59.733334-34.133334 29.866667z m55.466667 192l29.866667 29.866667-200.533334 200.533333-29.866666-34.133333 200.533333-196.266667z" fill="#ffffff" p-id="13697"></path></svg>