<?xml version="1.0" standalone="no"?><!DOCTYPE svg PUBLIC "-//W3C//DTD SVG 1.1//EN" "http://www.w3.org/Graphics/SVG/1.1/DTD/svg11.dtd"><svg t="1740591045079" class="icon" viewBox="0 0 1024 1024" version="1.1" xmlns="http://www.w3.org/2000/svg" p-id="8804" xmlns:xlink="http://www.w3.org/1999/xlink" width="256" height="256"><path d="M137.44 918.528a32.032 32.032 0 0 1-25.824-50.976l239.616-325.824-145.728-145.728a32 32 0 0 1 0-45.248c58.784-58.752 133.536-69.088 217.952-28.48l237.568-131.648-12.224-83.936a31.936 31.936 0 0 1 54.272-27.232l241.344 241.344a32 32 0 0 1-27.136 54.272l-83.712-12-132.256 238.016c26.88 60.192 46.496 142.624-28.16 217.28a32.96 32.96 0 0 1-45.248 0l-146.432-146.432-325.024 240.32a31.68 31.68 0 0 1-19.008 6.272z m347.2-320.672c8.256 0 16.448 3.2 22.656 9.376l140.768 140.768c21.312-35.328 17.28-75.616-11.328-134.016a31.904 31.904 0 0 1 0.736-29.632l150.912-271.616a32.192 32.192 0 0 1 32.512-16.128l10.432 1.472-105.216-105.216 1.504 10.368a31.936 31.936 0 0 1-16.16 32.608l-271.84 150.656c-9.6 5.312-21.28 5.344-30.912 0.064-52.672-28.896-95.712-32.928-132.672-10.656L416 515.872a32 32 0 0 1 3.168 41.6L288.64 734.976l176.992-130.848a31.68 31.68 0 0 1 19.008-6.272z" p-id="8805" fill="#515151"></path></svg>