<?xml version="1.0" standalone="no"?><!DOCTYPE svg PUBLIC "-//W3C//DTD SVG 1.1//EN" "http://www.w3.org/Graphics/SVG/1.1/DTD/svg11.dtd"><svg t="1765444736734" class="icon" viewBox="0 0 1024 1024" version="1.1" xmlns="http://www.w3.org/2000/svg" p-id="22843" xmlns:xlink="http://www.w3.org/1999/xlink" width="256" height="256"><path d="M538.593042 538.611715m-181.547403 0a181.547402 181.547402 0 1 0 363.094805 0 181.547402 181.547402 0 1 0-363.094805 0Z" fill="#B0E55C" p-id="22844"></path><path d="M399.738666 1023.744903a13.305857 13.305857 0 0 1-2.938717 0A519.989637 519.989637 0 0 1 232.150169 955.419734a13.305857 13.305857 0 0 1-4.489706-17.713933 103.508141 103.508141 0 0 0-140.976782-140.976782A13.305857 13.305857 0 0 1 68.969748 792.157682 519.989637 519.989637 0 0 1 0.318055 627.507902a13.305857 13.305857 0 0 1 9.714092-15.754788 103.834665 103.834665 0 0 0 75.345437-99.589852 103.834665 103.834665 0 0 0-75.427068-99.589852A13.305857 13.305857 0 0 1 0.318055 396.818622 519.989637 519.989637 0 0 1 68.806486 232.168842a13.305857 13.305857 0 0 1 17.713933-4.489706 103.508141 103.508141 0 0 0 140.81352-140.976782 13.305857 13.305857 0 0 1 4.489706-17.713933A519.989637 519.989637 0 0 1 396.555056 0.336728a13.305857 13.305857 0 0 1 15.754788 9.305937 103.834665 103.834665 0 0 0 99.589852 75.345437 103.834665 103.834665 0 0 0 99.589852-75.345437A13.305857 13.305857 0 0 1 627.162705 0.336728 519.989637 519.989637 0 0 1 792.139009 68.825159a13.305857 13.305857 0 0 1 4.489706 17.713933 103.508141 103.508141 0 0 0 140.895151 140.81352 13.305857 13.305857 0 0 1 17.713933 4.489706 519.989637 519.989637 0 0 1 68.243538 164.64978 13.305857 13.305857 0 0 1-9.305937 15.754788 103.508141 103.508141 0 0 0 0 199.179704 13.305857 13.305857 0 0 1 9.305937 15.754788A519.989637 519.989637 0 0 1 955.401061 792.157682a13.305857 13.305857 0 0 1-17.713932 4.489706 103.508141 103.508141 0 0 0-140.813521 140.895151A13.305857 13.305857 0 0 1 792.139009 955.419734a519.989637 519.989637 0 0 1-164.64978 68.243538 13.305857 13.305857 0 0 1-15.754788-9.305937 103.508141 103.508141 0 0 0-199.179704 0 13.305857 13.305857 0 0 1-12.816071 9.387568z m-262.688642-253.056181a116.405843 116.405843 0 0 1 101.875521 173.302668 507.091935 507.091935 0 0 0 160.649859 66.447656 116.487474 116.487474 0 0 1 224.158798 0 507.010304 507.010304 0 0 0 160.568228-66.529287 116.487474 116.487474 0 0 1 158.527453-158.609083 507.091935 507.091935 0 0 0 66.447655-160.64986 116.487474 116.487474 0 0 1 0-224.240429 507.010304 507.010304 0 0 0-66.529286-160.568228h-0.408155A116.487474 116.487474 0 0 1 785.118741 80.171872a507.091935 507.091935 0 0 0-160.813122-66.855811A116.895629 116.895629 0 0 1 511.818065 98.293959 116.895629 116.895629 0 0 1 399.738666 13.560954a507.010304 507.010304 0 0 0-160.976384 66.366024A116.569105 116.569105 0 0 1 80.153199 238.944217a507.010304 507.010304 0 0 0-66.855811 160.731491A116.895629 116.895629 0 0 1 98.275286 512.163262 116.895629 116.895629 0 0 1 13.542281 624.242661a507.010304 507.010304 0 0 0 66.366025 160.976384h0.408155a115.834426 115.834426 0 0 1 56.733563-14.611954z" fill="#69494D" p-id="22845"></path><path d="M510.838493 714.771469a204.077565 204.077565 0 1 1 204.077565-204.077565 204.077565 204.077565 0 0 1-204.077565 204.077565z m0-394.849274a190.93497 190.93497 0 1 0 190.93497 190.934971 191.179863 191.179863 0 0 0-190.93497-190.934971z" fill="#69494D" p-id="22846"></path></svg>