<svg width="1024" height="1024" viewBox="0 0 1024 1024" fill="none" xmlns="http://www.w3.org/2000/svg">
<path d="M519.743 103.911L87.238 230.11C68.4384 235.596 57.7837 255.758 63.4402 275.144L239.192 877.476C244.848 896.862 264.674 908.13 283.474 902.645L715.979 776.446C734.778 770.96 745.433 750.798 739.777 731.412L564.025 129.08C558.368 109.694 538.543 98.4258 519.743 103.911Z" fill="url(#paint0_linear_8191_5850)"/>
<path d="M138.869 533.652C221.505 532.694 306.792 544.109 389.209 573.543C494.716 611.224 595.487 678.425 679.958 786.956L283.474 902.645C264.674 908.13 244.849 896.862 239.192 877.476L138.869 533.652Z" fill="white" fill-opacity="0.27"/>
<path d="M771.712 206.678L477.96 172.36C468.458 171.261 458.901 173.912 451.385 179.732C443.869 185.551 439.008 194.064 437.868 203.402L364.17 813.14C363.041 822.484 365.733 831.885 371.655 839.277C377.577 846.668 386.242 851.445 395.746 852.555L851.045 905.746C860.549 906.856 870.112 904.209 877.631 898.388C885.149 892.566 890.008 884.047 891.137 874.704L941.145 460.959L771.712 206.678Z" fill="url(#paint1_linear_8191_5850)"/>
<path d="M748.023 402.671C747.458 407.298 747.827 411.99 749.109 416.476C750.391 420.963 752.561 425.157 755.494 428.818C758.427 432.479 762.066 435.536 766.202 437.813C770.338 440.089 774.891 441.541 779.599 442.086L941.146 460.959L771.712 206.678L748.023 402.671Z" fill="url(#paint2_linear_8191_5850)"/>
<path d="M675.618 459.64C694.455 461.825 707.953 478.867 705.768 497.704L697.015 573.155L772.466 581.908C791.303 584.093 804.801 601.135 802.616 619.972C800.431 638.809 783.389 652.308 764.552 650.122L689.101 641.369L680.348 716.82C678.163 735.657 661.121 749.156 642.284 746.971C623.447 744.785 609.948 727.743 612.134 708.907L620.887 633.456L545.436 624.702C526.599 622.517 513.1 605.475 515.285 586.638C517.471 567.801 534.513 554.303 553.349 556.488L628.8 565.241L637.554 489.79C639.739 470.953 656.781 457.455 675.618 459.64Z" fill="#F2BC40"/>
<path d="M675.618 459.64C694.455 461.825 707.953 478.867 705.768 497.704L697.015 573.155L772.466 581.908C791.303 584.093 804.801 601.135 802.616 619.972C800.431 638.809 783.389 652.308 764.552 650.122L689.101 641.369L680.348 716.82C678.163 735.657 661.121 749.156 642.284 746.971C623.447 744.785 609.948 727.743 612.134 708.907L620.887 633.456L545.436 624.702C526.599 622.517 513.1 605.475 515.285 586.638C517.471 567.801 534.513 554.303 553.349 556.488L628.8 565.241L637.554 489.79C639.739 470.953 656.781 457.455 675.618 459.64Z" fill="url(#paint3_linear_8191_5850)"/>
<defs>
<linearGradient id="paint0_linear_8191_5850" x1="330.008" y1="159.273" x2="526.244" y2="831.808" gradientUnits="userSpaceOnUse">
<stop stop-color="#FFE666"/>
<stop offset="1" stop-color="#E99E26"/>
</linearGradient>
<linearGradient id="paint1_linear_8191_5850" x1="705.609" y1="198.955" x2="626.108" y2="879.467" gradientUnits="userSpaceOnUse">
<stop stop-color="#FFF2B6"/>
<stop offset="1" stop-color="#FFED9D"/>
</linearGradient>
<linearGradient id="paint2_linear_8191_5850" x1="870.252" y1="335.433" x2="755.853" y2="406.095" gradientUnits="userSpaceOnUse">
<stop stop-color="#EDAE34"/>
<stop offset="0.25" stop-color="#FDD68F"/>
<stop offset="0.485577" stop-color="#FFD282"/>
<stop offset="0.875" stop-color="#FFDFA6"/>
<stop offset="1" stop-color="#FFDA98"/>
</linearGradient>
<linearGradient id="paint3_linear_8191_5850" x1="538.832" y1="443.771" x2="689.458" y2="521.817" gradientUnits="userSpaceOnUse">
<stop stop-color="#FFB752"/>
<stop offset="1" stop-color="#FFC22B"/>
</linearGradient>
</defs>
</svg>
