<svg width="1024" height="1024" viewBox="0 0 1024 1024" fill="none" xmlns="http://www.w3.org/2000/svg">
<path d="M487.953 96.0193C438.622 121.389 386.901 142.882 333.377 160.254C240.603 187.789 189.094 190.829 189.094 190.829C163.942 192.541 144.414 213.442 144.414 238.653V616.017C144.414 771.978 470.783 940.229 512 940.229V83.772L487.953 96.0193Z" fill="url(#paint0_linear_8191_5027)"/>
<path d="M838.368 190.829C838.368 190.829 783.396 190.829 694.085 160.254C597.896 129.635 539.461 96.0193 539.461 96.0193L511.999 83.772V940.229C549.801 940.229 879.585 771.978 879.585 616.017V235.199C879.585 211.897 861.607 192.543 838.368 190.829Z" fill="url(#paint1_linear_8191_5027)"/>
<path d="M539.461 96.0195C539.528 96.0582 597.951 129.653 694.085 160.254C783.286 190.792 838.232 190.829 838.368 190.829C861.606 192.543 879.586 211.897 879.586 235.198V472.132C818.876 502.53 753.871 526.667 685.15 541.871C629.742 554.13 571.924 560.58 511.999 559.827V83.7725L539.461 96.0195Z" fill="white" fill-opacity="0.27"/>
<path d="M512.001 559.827C396.565 558.377 273.313 530.195 144.414 465.298V238.652C144.414 213.442 163.942 192.541 189.094 190.829C189.094 190.829 240.604 187.789 333.378 160.254C386.901 142.883 438.622 121.389 487.953 96.0195L512.001 83.7715V559.827Z" fill="white" fill-opacity="0.27"/>
<g filter="url(#filter0_di_8191_5027)">
<path d="M661.732 545.16C667.084 538.633 662.44 528.82 653.999 528.82H562.515C554.997 528.82 550.168 520.836 553.658 514.178L646.933 336.223C650.423 329.564 645.594 321.58 638.076 321.58H422.483C417.254 321.58 412.908 325.609 412.512 330.823L393.356 583.285C392.916 589.09 397.507 594.042 403.328 594.042H473.397C479.554 594.042 484.249 599.553 483.27 605.632L457.648 764.686C456.024 774.769 468.779 780.515 475.254 772.617L661.732 545.16Z" fill="url(#paint2_linear_8191_5027)"/>
</g>
<defs>
<filter id="filter0_di_8191_5027" x="389.327" y="321.58" width="278.691" height="462.733" filterUnits="userSpaceOnUse" color-interpolation-filters="sRGB">
<feFlood flood-opacity="0" result="BackgroundImageFix"/>
<feColorMatrix in="SourceAlpha" type="matrix" values="0 0 0 0 0 0 0 0 0 0 0 0 0 0 0 0 0 0 127 0" result="hardAlpha"/>
<feOffset dy="4"/>
<feGaussianBlur stdDeviation="2"/>
<feComposite in2="hardAlpha" operator="out"/>
<feColorMatrix type="matrix" values="0 0 0 0 0 0 0 0 0 0 0 0 0 0 0 0 0 0 0.25 0"/>
<feBlend mode="normal" in2="BackgroundImageFix" result="effect1_dropShadow_8191_5027"/>
<feBlend mode="normal" in="SourceGraphic" in2="effect1_dropShadow_8191_5027" result="shape"/>
<feColorMatrix in="SourceAlpha" type="matrix" values="0 0 0 0 0 0 0 0 0 0 0 0 0 0 0 0 0 0 127 0" result="hardAlpha"/>
<feOffset dy="7"/>
<feGaussianBlur stdDeviation="4.7"/>
<feComposite in2="hardAlpha" operator="arithmetic" k2="-1" k3="1"/>
<feColorMatrix type="matrix" values="0 0 0 0 1 0 0 0 0 1 0 0 0 0 1 0 0 0 0.75 0"/>
<feBlend mode="normal" in2="shape" result="effect2_innerShadow_8191_5027"/>
</filter>
<linearGradient id="paint0_linear_8191_5027" x1="175.107" y1="512" x2="564.17" y2="540.611" gradientUnits="userSpaceOnUse">
<stop stop-color="#11DEC6"/>
<stop offset="1" stop-color="#0D9D8C"/>
</linearGradient>
<linearGradient id="paint1_linear_8191_5027" x1="542.692" y1="512" x2="931.755" y2="540.611" gradientUnits="userSpaceOnUse">
<stop stop-color="#11DEC6"/>
<stop offset="1" stop-color="#0D9D8C"/>
</linearGradient>
<linearGradient id="paint2_linear_8191_5027" x1="392.54" y1="561.431" x2="675.128" y2="561.431" gradientUnits="userSpaceOnUse">
<stop stop-color="#D9D9D9"/>
<stop offset="0.0501209" stop-color="#DBDBDB"/>
<stop offset="0.157325" stop-color="#EDEDED"/>
<stop offset="0.852778" stop-color="#EDEDED"/>
<stop offset="0.953196" stop-color="#DBDBDB"/>
<stop offset="1" stop-color="#D9D9D9"/>
</linearGradient>
</defs>
</svg>
