<?xml version="1.0" standalone="no"?><!DOCTYPE svg PUBLIC "-//W3C//DTD SVG 1.1//EN" "http://www.w3.org/Graphics/SVG/1.1/DTD/svg11.dtd"><svg t="1765359227383" class="icon" viewBox="0 0 1024 1024" version="1.1" xmlns="http://www.w3.org/2000/svg" p-id="20638" xmlns:xlink="http://www.w3.org/1999/xlink" width="128" height="128"><path d="M0 0h1024v1024H0z" fill="#1296db" opacity=".01" p-id="20639"></path><path d="M170.666667 170.666667h682.666666v682.666666H170.666667z" fill="#1296db" opacity=".01" p-id="20640"></path><path d="M574.72 190.72a32 32 0 0 1 45.226667 0l213.333333 213.333333a32 32 0 0 1-45.226667 45.226667l-15.104-15.061333-137.813333 206.677333 53.632 89.301333a32 32 0 0 1-1.706667 35.413334l-3.114666 3.669333-42.666667 42.666667a32 32 0 0 1-45.226667 0l-130.858666-130.773334-234.112 156.16c-27.861333 18.56-60.885333-12.501333-46.506667-40.746666l2.133333-3.669334 156.074667-234.24L212.053333 427.946667a32 32 0 0 1-3.114666-41.642667l3.114666-3.584 42.666667-42.666667a32 32 0 0 1 39.082667-4.821333l89.258666 53.546667 206.677334-137.770667-15.018667-15.061333a32 32 0 0 1 0-45.226667z m-172.970667 262.570667a32 32 0 0 1-34.218666 0.810666L282.282667 402.944l-2.346667 2.389333 126.72 126.72a32 32 0 0 1 6.4 36.010667l-2.432 4.352-81.834667 122.794667 122.794667-81.834667a32 32 0 0 1 36.565333 0.768l3.84 3.242667 126.72 126.677333 2.304-2.389333-51.114666-85.205334a32 32 0 0 1-1.493334-30.208l2.304-4.010666 156.074667-234.24-90.88-90.837334-234.154667 156.16z" fill="#1296db" p-id="20641"></path><path d="M425.386667 468.053333a32 32 0 0 1 45.226666 0l85.333334 85.333334a32 32 0 1 1-45.226667 45.226666l-85.333333-85.333333a32 32 0 0 1 0-45.226667z" fill="#1296db" p-id="20642"></path></svg>