<svg width="1024" height="1024" viewBox="0 0 1024 1024" fill="none" xmlns="http://www.w3.org/2000/svg">
<path d="M215.581 309.457C215.581 266.727 215.581 245.339 222.447 228.599C227.048 217.46 233.802 207.338 242.32 198.815C250.839 190.292 260.955 183.535 272.089 178.931C288.82 172.061 310.197 172.061 352.905 172.061H460.018C497.461 172.061 516.114 172.061 532.96 178.931C549.805 185.801 563.011 199.151 589.446 225.623L673.099 309.457H215.581Z" fill="#FFAC37"/>
<path d="M120.295 444.098L864.916 444.098V636.338C864.916 713.256 864.916 751.704 849.971 781.084C836.807 806.924 815.809 827.933 789.983 841.103C760.618 856.056 722.168 856.056 645.312 856.056H340.014C263.158 856.056 224.73 856.056 195.343 841.103C169.525 827.929 148.535 806.92 135.378 781.084C120.295 751.704 120.295 713.256 120.295 636.338V444.098Z" fill="url(#paint0_linear_8191_4484)"/>
<path d="M775.451 309.457C799.731 309.457 823.018 319.107 840.187 336.285C857.356 353.463 867.001 376.761 867.001 401.054H120.295V309.457C120.295 266.727 120.295 245.339 127.161 228.6C131.763 217.46 138.516 207.339 147.035 198.815C155.554 190.292 165.67 183.535 176.804 178.931C193.535 172.062 214.911 172.062 257.619 172.062H364.732C402.176 172.062 420.829 172.062 437.674 178.931C454.519 185.801 467.725 199.151 494.16 225.622L577.813 309.457H775.451Z" fill="url(#paint1_linear_8191_4484)"/>
<path d="M120.294 544.901C149.842 550.187 179.335 557.378 208.562 566.708C343.684 609.843 473.063 698.672 575.788 856.057H340.013C263.158 856.057 224.73 856.057 195.342 841.104C169.525 827.929 148.535 806.92 135.377 781.084C120.295 751.704 120.294 713.256 120.294 636.338V544.901Z" fill="white" fill-opacity="0.27"/>
<path d="M927.419 582.017C932.576 582.017 937.522 584.066 941.169 587.712C944.815 591.359 946.864 596.305 946.864 601.462C946.864 606.619 944.815 611.565 941.169 615.211C937.522 618.858 932.576 620.906 927.419 620.906H907.974L907.916 622.287L889.774 876.449C889.076 886.26 884.685 895.443 877.487 902.146C870.289 908.85 860.818 912.577 850.982 912.577H692.721C682.885 912.577 673.414 908.85 666.216 902.146C659.018 895.443 654.628 886.26 653.929 876.449L635.787 622.306L635.748 620.906H616.304C611.147 620.906 606.201 618.858 602.554 615.211C598.908 611.565 596.859 606.619 596.859 601.462C596.859 596.305 598.908 591.359 602.554 587.712C606.201 584.066 611.147 582.017 616.304 582.017H927.419ZM810.751 523.683C815.908 523.683 820.854 525.731 824.5 529.378C828.147 533.025 830.195 537.971 830.195 543.128C830.195 548.285 828.147 553.23 824.5 556.877C820.854 560.524 815.908 562.572 810.751 562.572H732.972C727.815 562.572 722.869 560.524 719.222 556.877C715.576 553.23 713.527 548.285 713.527 543.128C713.527 537.971 715.576 533.025 719.222 529.378C722.869 525.731 727.815 523.683 732.972 523.683H810.751Z" fill="url(#paint2_linear_8191_4484)"/>
<defs>
<linearGradient id="paint0_linear_8191_4484" x1="532.05" y1="444.098" x2="532.05" y2="856.057" gradientUnits="userSpaceOnUse">
<stop stop-color="#FFE666"/>
<stop offset="1" stop-color="#E99E26"/>
</linearGradient>
<linearGradient id="paint1_linear_8191_4484" x1="138.173" y1="172.062" x2="323.303" y2="401.054" gradientUnits="userSpaceOnUse">
<stop stop-color="#FFB752"/>
<stop offset="1" stop-color="#FFC22B"/>
</linearGradient>
<linearGradient id="paint2_linear_8191_4484" x1="877.127" y1="580.039" x2="569.444" y2="863.88" gradientUnits="userSpaceOnUse">
<stop offset="0.0224249" stop-color="#F0272B"/>
<stop offset="0.974339" stop-color="#FFD5D6"/>
</linearGradient>
</defs>
</svg>
