<svg width="1024" height="1024" viewBox="0 0 1024 1024" fill="none" xmlns="http://www.w3.org/2000/svg">
<path opacity="0.7" d="M109.985 528.515H388.973V876.775H185.385C175.469 876.775 165.651 874.822 156.492 871.027C147.334 867.233 139.014 861.671 132.01 854.662C125.007 847.652 119.456 839.331 115.677 830.176C111.897 821.021 109.963 811.212 109.985 801.309V528.515Z" fill="url(#paint0_linear_8191_5302)"/>
<path d="M388.973 528.515H824.27V801.309C824.291 811.212 822.357 821.021 818.578 830.176C814.798 839.331 809.248 847.652 802.244 854.662C795.24 861.671 786.921 867.233 777.762 871.027C768.603 874.822 758.785 876.775 748.87 876.775H388.973V528.515Z" fill="#CEDBEA"/>
<g filter="url(#filter0_di_8191_5302)">
<path d="M176.422 270.667H757.915C775.535 270.667 792.433 277.658 804.893 290.101C817.352 302.544 824.352 319.421 824.352 337.018V504.516C824.352 517.771 813.607 528.516 800.352 528.516H109.984V336.936C110.006 319.353 117.015 302.497 129.473 290.072C141.93 277.646 158.816 270.667 176.422 270.667Z" fill="url(#paint1_linear_8191_5302)"/>
</g>
<g filter="url(#filter1_di_8191_5302)">
<path d="M223.988 443.669C246.554 443.669 264.848 425.368 264.848 402.793C264.848 380.218 246.554 361.917 223.988 361.917C201.421 361.917 183.127 380.218 183.127 402.793C183.127 425.368 201.421 443.669 223.988 443.669Z" fill="#E04C10"/>
</g>
<g filter="url(#filter2_di_8191_5302)">
<path d="M340.23 443.669C362.797 443.669 381.091 425.368 381.091 402.793C381.091 380.218 362.797 361.917 340.23 361.917C317.663 361.917 299.369 380.218 299.369 402.793C299.369 425.368 317.663 443.669 340.23 443.669Z" fill="#FFCC01"/>
</g>
<g filter="url(#filter3_di_8191_5302)">
<path d="M456.209 443.669C478.776 443.669 497.07 425.368 497.07 402.793C497.07 380.218 478.776 361.917 456.209 361.917C433.643 361.917 415.349 380.218 415.349 402.793C415.349 425.368 433.643 443.669 456.209 443.669Z" fill="#5DCB34"/>
</g>
<rect x="547.73" y="141.786" width="401.01" height="505.06" rx="67" fill="url(#paint2_linear_8191_5302)"/>
<g filter="url(#filter4_di_8191_5302)">
<path d="M613.285 281.555C613.285 268.3 624.03 257.555 637.285 257.555H859.186C872.44 257.555 883.186 268.3 883.186 281.555V282.679C883.186 295.934 872.44 306.679 859.186 306.679H637.285C624.03 306.679 613.285 295.934 613.285 282.679V281.555Z" fill="url(#paint3_linear_8191_5302)"/>
</g>
<g filter="url(#filter5_di_8191_5302)">
<path d="M613.285 393.754C613.285 380.499 624.03 369.754 637.285 369.754H773.995C787.25 369.754 797.995 380.499 797.995 393.754V394.879C797.995 408.133 787.25 418.879 773.995 418.879H637.285C624.03 418.879 613.285 408.133 613.285 394.879V393.754Z" fill="url(#paint4_linear_8191_5302)"/>
</g>
<defs>
<filter id="filter0_di_8191_5302" x="105.984" y="270.667" width="722.368" height="265.849" filterUnits="userSpaceOnUse" color-interpolation-filters="sRGB">
<feFlood flood-opacity="0" result="BackgroundImageFix"/>
<feColorMatrix in="SourceAlpha" type="matrix" values="0 0 0 0 0 0 0 0 0 0 0 0 0 0 0 0 0 0 127 0" result="hardAlpha"/>
<feOffset dy="4"/>
<feGaussianBlur stdDeviation="2"/>
<feComposite in2="hardAlpha" operator="out"/>
<feColorMatrix type="matrix" values="0 0 0 0 0 0 0 0 0 0 0 0 0 0 0 0 0 0 0.25 0"/>
<feBlend mode="normal" in2="BackgroundImageFix" result="effect1_dropShadow_8191_5302"/>
<feBlend mode="normal" in="SourceGraphic" in2="effect1_dropShadow_8191_5302" result="shape"/>
<feColorMatrix in="SourceAlpha" type="matrix" values="0 0 0 0 0 0 0 0 0 0 0 0 0 0 0 0 0 0 127 0" result="hardAlpha"/>
<feOffset dy="7"/>
<feGaussianBlur stdDeviation="4.7"/>
<feComposite in2="hardAlpha" operator="arithmetic" k2="-1" k3="1"/>
<feColorMatrix type="matrix" values="0 0 0 0 1 0 0 0 0 1 0 0 0 0 1 0 0 0 0.75 0"/>
<feBlend mode="normal" in2="shape" result="effect2_innerShadow_8191_5302"/>
</filter>
<filter id="filter1_di_8191_5302" x="179.127" y="361.917" width="89.7214" height="89.7529" filterUnits="userSpaceOnUse" color-interpolation-filters="sRGB">
<feFlood flood-opacity="0" result="BackgroundImageFix"/>
<feColorMatrix in="SourceAlpha" type="matrix" values="0 0 0 0 0 0 0 0 0 0 0 0 0 0 0 0 0 0 127 0" result="hardAlpha"/>
<feOffset dy="4"/>
<feGaussianBlur stdDeviation="2"/>
<feComposite in2="hardAlpha" operator="out"/>
<feColorMatrix type="matrix" values="0 0 0 0 0 0 0 0 0 0 0 0 0 0 0 0 0 0 0.25 0"/>
<feBlend mode="normal" in2="BackgroundImageFix" result="effect1_dropShadow_8191_5302"/>
<feBlend mode="normal" in="SourceGraphic" in2="effect1_dropShadow_8191_5302" result="shape"/>
<feColorMatrix in="SourceAlpha" type="matrix" values="0 0 0 0 0 0 0 0 0 0 0 0 0 0 0 0 0 0 127 0" result="hardAlpha"/>
<feOffset dy="7"/>
<feGaussianBlur stdDeviation="4.7"/>
<feComposite in2="hardAlpha" operator="arithmetic" k2="-1" k3="1"/>
<feColorMatrix type="matrix" values="0 0 0 0 1 0 0 0 0 1 0 0 0 0 1 0 0 0 0.75 0"/>
<feBlend mode="normal" in2="shape" result="effect2_innerShadow_8191_5302"/>
</filter>
<filter id="filter2_di_8191_5302" x="295.369" y="361.917" width="89.7214" height="89.7529" filterUnits="userSpaceOnUse" color-interpolation-filters="sRGB">
<feFlood flood-opacity="0" result="BackgroundImageFix"/>
<feColorMatrix in="SourceAlpha" type="matrix" values="0 0 0 0 0 0 0 0 0 0 0 0 0 0 0 0 0 0 127 0" result="hardAlpha"/>
<feOffset dy="4"/>
<feGaussianBlur stdDeviation="2"/>
<feComposite in2="hardAlpha" operator="out"/>
<feColorMatrix type="matrix" values="0 0 0 0 0 0 0 0 0 0 0 0 0 0 0 0 0 0 0.25 0"/>
<feBlend mode="normal" in2="BackgroundImageFix" result="effect1_dropShadow_8191_5302"/>
<feBlend mode="normal" in="SourceGraphic" in2="effect1_dropShadow_8191_5302" result="shape"/>
<feColorMatrix in="SourceAlpha" type="matrix" values="0 0 0 0 0 0 0 0 0 0 0 0 0 0 0 0 0 0 127 0" result="hardAlpha"/>
<feOffset dy="7"/>
<feGaussianBlur stdDeviation="4.7"/>
<feComposite in2="hardAlpha" operator="arithmetic" k2="-1" k3="1"/>
<feColorMatrix type="matrix" values="0 0 0 0 1 0 0 0 0 1 0 0 0 0 1 0 0 0 0.75 0"/>
<feBlend mode="normal" in2="shape" result="effect2_innerShadow_8191_5302"/>
</filter>
<filter id="filter3_di_8191_5302" x="411.349" y="361.917" width="89.7214" height="89.7529" filterUnits="userSpaceOnUse" color-interpolation-filters="sRGB">
<feFlood flood-opacity="0" result="BackgroundImageFix"/>
<feColorMatrix in="SourceAlpha" type="matrix" values="0 0 0 0 0 0 0 0 0 0 0 0 0 0 0 0 0 0 127 0" result="hardAlpha"/>
<feOffset dy="4"/>
<feGaussianBlur stdDeviation="2"/>
<feComposite in2="hardAlpha" operator="out"/>
<feColorMatrix type="matrix" values="0 0 0 0 0 0 0 0 0 0 0 0 0 0 0 0 0 0 0.25 0"/>
<feBlend mode="normal" in2="BackgroundImageFix" result="effect1_dropShadow_8191_5302"/>
<feBlend mode="normal" in="SourceGraphic" in2="effect1_dropShadow_8191_5302" result="shape"/>
<feColorMatrix in="SourceAlpha" type="matrix" values="0 0 0 0 0 0 0 0 0 0 0 0 0 0 0 0 0 0 127 0" result="hardAlpha"/>
<feOffset dy="7"/>
<feGaussianBlur stdDeviation="4.7"/>
<feComposite in2="hardAlpha" operator="arithmetic" k2="-1" k3="1"/>
<feColorMatrix type="matrix" values="0 0 0 0 1 0 0 0 0 1 0 0 0 0 1 0 0 0 0.75 0"/>
<feBlend mode="normal" in2="shape" result="effect2_innerShadow_8191_5302"/>
</filter>
<filter id="filter4_di_8191_5302" x="609.285" y="257.555" width="277.9" height="57.1246" filterUnits="userSpaceOnUse" color-interpolation-filters="sRGB">
<feFlood flood-opacity="0" result="BackgroundImageFix"/>
<feColorMatrix in="SourceAlpha" type="matrix" values="0 0 0 0 0 0 0 0 0 0 0 0 0 0 0 0 0 0 127 0" result="hardAlpha"/>
<feOffset dy="4"/>
<feGaussianBlur stdDeviation="2"/>
<feComposite in2="hardAlpha" operator="out"/>
<feColorMatrix type="matrix" values="0 0 0 0 0 0 0 0 0 0 0 0 0 0 0 0 0 0 0.25 0"/>
<feBlend mode="normal" in2="BackgroundImageFix" result="effect1_dropShadow_8191_5302"/>
<feBlend mode="normal" in="SourceGraphic" in2="effect1_dropShadow_8191_5302" result="shape"/>
<feColorMatrix in="SourceAlpha" type="matrix" values="0 0 0 0 0 0 0 0 0 0 0 0 0 0 0 0 0 0 127 0" result="hardAlpha"/>
<feOffset dy="7"/>
<feGaussianBlur stdDeviation="4.7"/>
<feComposite in2="hardAlpha" operator="arithmetic" k2="-1" k3="1"/>
<feColorMatrix type="matrix" values="0 0 0 0 1 0 0 0 0 1 0 0 0 0 1 0 0 0 0.75 0"/>
<feBlend mode="normal" in2="shape" result="effect2_innerShadow_8191_5302"/>
</filter>
<filter id="filter5_di_8191_5302" x="609.285" y="369.754" width="192.71" height="57.1246" filterUnits="userSpaceOnUse" color-interpolation-filters="sRGB">
<feFlood flood-opacity="0" result="BackgroundImageFix"/>
<feColorMatrix in="SourceAlpha" type="matrix" values="0 0 0 0 0 0 0 0 0 0 0 0 0 0 0 0 0 0 127 0" result="hardAlpha"/>
<feOffset dy="4"/>
<feGaussianBlur stdDeviation="2"/>
<feComposite in2="hardAlpha" operator="out"/>
<feColorMatrix type="matrix" values="0 0 0 0 0 0 0 0 0 0 0 0 0 0 0 0 0 0 0.25 0"/>
<feBlend mode="normal" in2="BackgroundImageFix" result="effect1_dropShadow_8191_5302"/>
<feBlend mode="normal" in="SourceGraphic" in2="effect1_dropShadow_8191_5302" result="shape"/>
<feColorMatrix in="SourceAlpha" type="matrix" values="0 0 0 0 0 0 0 0 0 0 0 0 0 0 0 0 0 0 127 0" result="hardAlpha"/>
<feOffset dy="7"/>
<feGaussianBlur stdDeviation="4.7"/>
<feComposite in2="hardAlpha" operator="arithmetic" k2="-1" k3="1"/>
<feColorMatrix type="matrix" values="0 0 0 0 1 0 0 0 0 1 0 0 0 0 1 0 0 0 0.75 0"/>
<feBlend mode="normal" in2="shape" result="effect2_innerShadow_8191_5302"/>
</filter>
<linearGradient id="paint0_linear_8191_5302" x1="403.825" y1="494.973" x2="127.749" y2="884.649" gradientUnits="userSpaceOnUse">
<stop stop-color="#748AA4"/>
<stop offset="1" stop-color="#BED6F2"/>
</linearGradient>
<linearGradient id="paint1_linear_8191_5302" x1="109.984" y1="399.591" x2="824.352" y2="399.591" gradientUnits="userSpaceOnUse">
<stop stop-color="#D9D9D9"/>
<stop offset="0.0501209" stop-color="#DBDBDB"/>
<stop offset="0.157325" stop-color="#EDEDED"/>
<stop offset="0.852778" stop-color="#EDEDED"/>
<stop offset="0.953196" stop-color="#DBDBDB"/>
<stop offset="1" stop-color="#D9D9D9"/>
</linearGradient>
<linearGradient id="paint2_linear_8191_5302" x1="970.088" y1="93.142" x2="568.541" y2="654.889" gradientUnits="userSpaceOnUse">
<stop stop-color="#BED6F2"/>
<stop offset="1" stop-color="#748AA4"/>
</linearGradient>
<linearGradient id="paint3_linear_8191_5302" x1="613.285" y1="282.117" x2="883.186" y2="282.117" gradientUnits="userSpaceOnUse">
<stop stop-color="#D9D9D9"/>
<stop offset="0.0501209" stop-color="#DBDBDB"/>
<stop offset="0.157325" stop-color="#EDEDED"/>
<stop offset="0.852778" stop-color="#EDEDED"/>
<stop offset="0.953196" stop-color="#DBDBDB"/>
<stop offset="1" stop-color="#D9D9D9"/>
</linearGradient>
<linearGradient id="paint4_linear_8191_5302" x1="613.285" y1="394.316" x2="797.995" y2="394.316" gradientUnits="userSpaceOnUse">
<stop stop-color="#D9D9D9"/>
<stop offset="0.0501209" stop-color="#DBDBDB"/>
<stop offset="0.157325" stop-color="#EDEDED"/>
<stop offset="0.852778" stop-color="#EDEDED"/>
<stop offset="0.953196" stop-color="#DBDBDB"/>
<stop offset="1" stop-color="#D9D9D9"/>
</linearGradient>
</defs>
</svg>
