<?xml version="1.0" standalone="no"?><!DOCTYPE svg PUBLIC "-//W3C//DTD SVG 1.1//EN" "http://www.w3.org/Graphics/SVG/1.1/DTD/svg11.dtd"><svg t="1765359478721" class="icon" viewBox="0 0 1024 1024" version="1.1" xmlns="http://www.w3.org/2000/svg" p-id="33291" xmlns:xlink="http://www.w3.org/1999/xlink" width="128" height="128"><path d="M112.406094 809.762082l216.476067-213.507575h109.720315l17.791317 106.75575-243.165005 225.369762c0.003927 0-160.125773 5.933056-100.822694-118.617937z" fill="#E99D22" p-id="33292"></path><path d="M232.351214 419.381886c16.173567 0 32.001595-2.163543 47.311315-5.90557 0.828508 1.119074 1.287917 2.430551 2.3049 3.45146l68.844659 68.848586a26.700717 26.700717 0 0 0 18.93395 7.845299 26.779249 26.779249 0 0 0 18.937876-45.721052L332.64382 391.840882c14.15138-8.367534 27.462473-18.384229 39.407118-30.340654 5.438308-5.446161 10.421133-11.218228 15.140878-17.155211l57.681402 57.67355a26.704644 26.704644 0 0 0 18.937877 7.845299 26.775322 26.775322 0 0 0 18.937876-45.717126l-67.493916-67.489989a197.534264 197.534264 0 0 0 14.657908-74.828761c0-52.76533-20.559552-102.342279-57.873805-139.676165C331.277372 41.386112 275.084141 20.642011 217.296721 25.01229a26.751763 26.751763 0 0 0-23.084341 17.386879 26.810662 26.810662 0 0 0 6.188284 28.251715l35.111444 35.123223c15.914413 15.930119 24.69031 37.086511 24.69031 59.613278a83.746015 83.746015 0 0 1-24.709943 59.605425c-31.828826 31.81312-87.382024 31.81312-119.214777 0l-35.111444-35.131076a26.712497 26.712497 0 0 0-28.232082-6.164725 26.767469 26.767469 0 0 0-17.410438 23.068635C31.145602 264.411708 51.960381 320.801267 92.675049 361.523788c37.314253 37.302473 86.922615 57.858099 139.676165 57.858098zM175.890976 303.253398c36.83521 0 71.444052-14.363415 97.481178-40.384835 26.052832-26.052832 40.384835-60.661674 40.400542-97.481178 0-26.916679-7.66075-52.655385-21.933854-74.70311a143.453531 143.453531 0 0 1 42.332417 29.351156c27.191539 27.203319 42.175354 63.347452 42.175353 101.800412 0 38.445107-14.983814 74.597093-42.175353 101.800412-27.203319 27.203319-63.359232 42.187134-101.823972 42.187133-38.45296 0-74.608872-14.983814-101.800412-42.163574a142.65251 142.65251 0 0 1-29.209799-42.273518c22.024165 14.229912 47.7079 21.867102 74.5539 21.867102z m755.441828 335.631945c-37.310326-37.302473-86.914762-57.862025-139.668312-57.862025a197.063074 197.063074 0 0 0-76.607499 15.407884l-127.974968-127.919996 215.392331-221.753384c24.356552-15.278308 48.43039-38.735673 54.257429-53.232593 6.035147-15.007374 8.426432-29.841978 5.277318-32.955753-3.145187-3.137334-8.281149-8.289002-11.434189-11.426336-3.153041-3.145187-17.999425-0.789242-32.98324 5.253759-14.669688 5.936983-38.645362 30.682266-53.907963 55.423621l-366.172853 376.959158-90.189527-9.08217c-8.045554-0.730343-15.74557 1.963288-21.403766 7.507613-19.562202 19.142058-188.381415 190.914056-195.386427 198.052572-44.778674 44.755114-47.032528 98.39607-6.003734 143.520283 20.100143 22.102697 46.023398 34.133726 74.97797 34.809097 0.852067 0 1.715914 0.023559 2.564054 0.023559 33.674317 0 64.128841-15.376472 80.027548-31.306591 67.313294-69.920541 173.370114-178.773083 189.72823-192.088102a26.767469 26.767469 0 0 0 3.883384-37.663718c-9.337398-11.489162-26.237381-13.236488-37.679424-3.871604-24.136663 19.617174-177.147481 178.427544-194.180968 196.112843-6.573088 6.596648-24.242681 16.34241-43.102026 15.223335-14.339856-0.345539-26.315913-5.988029-36.595689-17.284788-14.485139-15.930119-27.109081-38.268411 4.421325-69.759551 1.59419-1.625603 145.483571-148.043698 185.997983-188.715173l90.452607 9.09395c8.230103 0.789242 16.1932-2.108571 21.894588-7.998436l35.217461-36.258003 137.127817 137.116037c-3.290471 14.410534-5.175227 29.2098-5.175227 44.35853 0 52.757476 20.559552 102.342279 57.869878 139.676165 37.220015 37.239648 86.804818 57.748155 139.632973 57.748155a194.365517 194.365517 0 0 0 15.109464-0.569354 26.779249 26.779249 0 0 0 23.076488-17.402585 26.779249 26.779249 0 0 0-6.164724-28.243862l-35.11537-35.131076c-32.869368-32.877222-32.869368-86.361115 0.015706-119.24619 31.824899-31.797413 87.389878-31.797413 119.214777 0l35.11537 35.131077a26.771396 26.771396 0 0 0 28.228155 6.172577 26.759616 26.759616 0 0 0 17.410439-23.068634c4.382059-57.63821-16.440574-114.02777-57.147389-154.750291z m-431.864472-80.204243L549.759919 506.920974l117.934713 117.919007a197.601015 197.601015 0 0 0-15.729864 14.064995c-12.384421 12.376568-22.730949 26.213822-31.283032 40.962042l-121.213404-121.185918z m348.648545 138.506045c-36.827357 0-71.444052 14.332003-97.481178 40.361276-46.690916 46.690916-52.832081 118.826046-18.411715 172.207848a143.634154 143.634154 0 0 1-42.387389-29.37079c-27.187613-27.211172-42.171427-63.355305-42.171428-101.800411 0-38.45296 14.983814-74.597093 42.171428-101.808265 27.203319-27.203319 63.363158-42.187134 101.831824-42.187134 38.445107 0 74.604946 14.983814 101.792559 42.163574a142.774233 142.774233 0 0 1 29.217652 42.273518c-22.028092-14.233838-47.711826-21.839616-74.561753-21.839616z m0 0" fill="#6C93C6" p-id="33293"></path></svg>