<?xml version="1.0" standalone="no"?><!DOCTYPE svg PUBLIC "-//W3C//DTD SVG 1.1//EN" "http://www.w3.org/Graphics/SVG/1.1/DTD/svg11.dtd"><svg t="1765436523962" class="icon" viewBox="0 0 1170 1024" version="1.1" xmlns="http://www.w3.org/2000/svg" p-id="8302" xmlns:xlink="http://www.w3.org/1999/xlink" width="292.5" height="256"><path d="M952.832 692.077714H0v-571.977143h881.956571c39.204571 0 70.948571 31.890286 70.948572 71.168v500.809143h-0.073143zM476.379429 0.658286h-356.937143C53.394286 0.731429 0 54.125714 0 120.027429h595.456A119.222857 119.222857 0 0 0 476.379429 0.731429z" fill="#5A4B0B" p-id="8303"></path><path d="M119.076571 532.626286V174.518857h714.678858v358.107429H119.076571z" fill="#FFFFFF" p-id="8304"></path><path d="M952.832 767.707429V303.835429a59.684571 59.684571 0 0 0-59.538286-59.684572H59.538286A59.684571 59.684571 0 0 0 0 303.835429v463.725714c0 40.594286 32.841143 73.654857 73.435429 73.654857h806.034285a73.289143 73.289143 0 0 0 73.362286-73.508571z" fill="#715F15" p-id="8305"></path><path d="M650.166857 704.365714a249.197714 249.197714 0 1 0 498.468572 0 249.197714 249.197714 0 0 0-498.468572 0z" fill="#F56666" p-id="8306"></path><path d="M1015.222857 574.025143h-82.066286a3.510857 3.510857 0 0 1-3.364571-3.218286 31.451429 31.451429 0 0 0-30.427429-29.037714 31.451429 31.451429 0 0 0-30.427428 29.037714 3.510857 3.510857 0 0 1-3.364572 3.218286h-81.92c-1.901714 0-3.437714 1.609143-3.437714 3.657143v47.177143c0 1.974857 1.462857 3.657143 3.364572 3.657142h231.570285c1.901714 0 3.437714-1.682286 3.437715-3.657142v-47.177143a3.730286 3.730286 0 0 0-1.024-2.56 3.291429 3.291429 0 0 0-2.413715-1.097143z" fill="#FFFFFF" p-id="8307"></path><path d="M993.426286 628.516571H805.302857a3.510857 3.510857 0 0 0-3.437714 3.437715v209.773714c0 1.901714 1.536 3.510857 3.437714 3.510857h188.123429a3.510857 3.510857 0 0 0 3.510857-3.510857V631.954286a3.510857 3.510857 0 0 0-3.510857-3.437715z m-134.144 170.715429a3.510857 3.510857 0 0 1-3.437715 3.510857h-10.459428a3.510857 3.510857 0 0 1-3.437714-3.510857V673.645714c0-1.901714 1.536-3.510857 3.437714-3.510857h10.459428c1.901714 0 3.437714 1.609143 3.437715 3.510857v125.659429z m48.786285 0a3.510857 3.510857 0 0 1-3.510857 3.510857h-10.386285a3.510857 3.510857 0 0 1-3.437715-3.510857V673.645714c0-1.901714 1.536-3.510857 3.437715-3.510857h10.386285c1.974857 0 3.510857 1.609143 3.510857 3.510857v125.659429z m48.786286 0a3.510857 3.510857 0 0 1-3.510857 3.510857h-10.386286a3.510857 3.510857 0 0 1-3.437714-3.510857V673.645714c0-1.901714 1.462857-3.510857 3.437714-3.510857h10.386286c1.974857 0 3.510857 1.609143 3.510857 3.510857v125.659429z" fill="#FFCCCC" p-id="8308"></path></svg>