<?xml version="1.0" standalone="no"?><!DOCTYPE svg PUBLIC "-//W3C//DTD SVG 1.1//EN" "http://www.w3.org/Graphics/SVG/1.1/DTD/svg11.dtd"><svg t="1765358849323" class="icon" viewBox="0 0 1024 1024" version="1.1" xmlns="http://www.w3.org/2000/svg" p-id="5621" width="128" height="128" xmlns:xlink="http://www.w3.org/1999/xlink"><path d="M823.154 512c0 171.852-139.302 311.154-311.154 311.154l-24.724 95.976L512 1024c282.778 0 512-229.222 512-512l-104.822-24.724z" fill="#FB3A82" p-id="5622"></path><path d="M512 0C229.222 0 0 229.222 0 512l93.71 12.362L200.846 512c0-171.852 139.302-311.154 311.154-311.154l12.362-103.222z" fill="#27D1B3" p-id="5623"></path><path d="M0 512c0 282.778 229.222 512 512 512V823.154c-171.852 0-311.154-139.302-311.154-311.154z" fill="#31A7FB" p-id="5624"></path><path d="M1024 512C1024 229.222 794.778 0 512 0v200.846c171.852 0 311.154 139.302 311.154 311.154z" fill="#FC9744" p-id="5625"></path><path d="M1024 512h-83.176c0-254.476-185.598-465.56-428.824-505.284V0c282.784 0 512 229.216 512 512z" fill="#FB8627" p-id="5626"></path><path d="M917.582 255.424c24.56 29.236 23.096 73.04-4.388 100.526-14.072 14.052-32.78 21.798-52.662 21.798-13.124 0-25.734-3.38-36.818-9.724l-24.374 24.374a311.38 311.38 0 0 0-68.198-101.288l142.516-141.546a513.416 513.416 0 0 1 67.168 82.62z" fill="#FB8627" p-id="5627"></path><path d="M1024 512c0 282.784-229.216 512-512 512v-6.716C755.226 977.56 940.824 766.476 940.824 512z" fill="#FB1466" p-id="5628"></path><path d="M725.932 188.392L460.014 454.308c-15.696 15.696-15.696 41.146 0 56.844l-42.162 42.162c-14.294 14.294-15.354 37.584-1.576 52.378 14.464 15.53 38.79 15.856 53.668 0.978l42.794-42.794c15.698 15.698 41.146 15.698 56.844 0L835.5 297.96z" fill="#CBE5E7" p-id="5629"></path><path d="M787.36 346.1l48.14-48.14-109.568-109.568-48.14 48.14 109.568 109.568z" fill="#A9D3D8" p-id="5630"></path><path d="M835.498 297.97L569.588 563.88a40.068 40.068 0 0 1-28.412 11.786 40.072 40.072 0 0 1-28.432-11.786l-42.794 42.794c-14.876 14.876-39.208 14.546-53.672-0.99-6.388-6.84-9.58-15.514-9.746-24.25a37.12 37.12 0 0 0 27.28-10.9l34.532-34.532c4.296-4.294 10.966-5.194 16.188-2.09a40.122 40.122 0 0 0 20.506 5.616 40.064 40.064 0 0 0 28.412-11.786L799.36 261.832z" fill="#A9D3D8" p-id="5631"></path><path d="M884.046 279.764c-13.548-13.548-13.548-35.516 0-49.064l55.666-55.666c25.088-25.088 25.088-65.766 0-90.856-25.088-25.088-65.766-25.088-90.854 0l-55.666 55.666c-13.548 13.548-35.516 13.548-49.064 0-12.99-12.99-34.052-12.99-47.042 0-12.99 12.99-12.99 34.052 0 47.042l139.92 139.92c12.99 12.99 34.052 12.99 47.042 0 12.99-12.99 12.99-34.052-0.002-47.042z" fill="#3F5959" p-id="5632"></path><path d="M884.04 230.698c-13.536 13.558-13.536 35.52 0 49.058 6.49 6.51 9.746 15.02 9.746 23.53s-3.256 17.018-9.746 23.53c-12.98 12.98-34.038 12.98-47.038 0l-41.928-41.928c13 12.98 34.058 12.98 47.038 0 6.51-6.49 9.746-15.02 9.746-23.53s-3.234-17.04-9.746-23.53c-13.536-13.536-13.536-35.5 0-49.058l55.672-55.672c17.534-17.514 22.808-42.65 15.844-64.758a63.804 63.804 0 0 1 26.084 15.844c25.096 25.074 25.096 65.766 0 90.842z" fill="#384848" p-id="5633"></path></svg>