<?xml version="1.0" standalone="no"?><!DOCTYPE svg PUBLIC "-//W3C//DTD SVG 1.1//EN" "http://www.w3.org/Graphics/SVG/1.1/DTD/svg11.dtd"><svg t="1765374177361" class="icon" viewBox="0 0 1153 1024" version="1.1" xmlns="http://www.w3.org/2000/svg" p-id="6712" xmlns:xlink="http://www.w3.org/1999/xlink" width="144.125" height="128"><path d="M333.141808 386.55174a101.680229 101.680229 0 1 0-183.369279-60.407401 101.435484 101.435484 0 0 0 161.865134 81.855922m12.78234-81.855922a72.522255 72.522255 0 0 1-19.813183 49.694265l-3.337425 3.337426a72.678001 72.678001 0 1 1 23.139483-53.020566z m305.218682-70.085934h47.558312c31.071431 0 48.759786 12.693341 48.759786 39.248123 0 27.255641-17.688355 40.382848-48.759786 40.382848h-7.876324l16.99862 30.125827 36.834053 60.718894h38.502764l-45.177615-67.193499c26.799526-10.257021 41.617695-32.951514 41.617695-65.001923 0-43.508903-29.436092-68.572968-80.810195-68.572968h-81.544428v200.76839h33.963866V256.080654zM483.615197 427.96919c28.44599 0 57.381468-12.938086 77.695264-32.996013l-20.113551-22.249503a82.712527 82.712527 0 0 1-55.946375 23.684596c-40.126979 0-71.699023-31.371799-71.699023-70.75342 0-39.693113 31.572045-70.508675 71.699023-70.508675 20.313796 0 41.372951 9.567286 55.946375 25.319935l19.868806-24.6302a111.392137 111.392137 0 0 0-76.260171-30.815562c-59.506296 0-105.629515 43.753648-105.629515 100.879247-0.055624 57.626213 45.611481 102.069595 104.439167 102.069595z m0 0" fill="#407CD5" p-id="6713"></path><path d="M265.603442 0v56.958728H103.093072A46.301216 46.301216 0 0 0 56.958728 103.093072v162.165502H0.044499V103.093072C0.044499 46.134344 46.768455 0 103.137571 0z m380.132758 0v56.958728h162.51037a46.31234 46.31234 0 0 1 46.178843 46.134344v162.165502h56.958728V103.093072c0-56.958728-46.723956-103.093072-103.093072-103.093072z m-380.132758 911.17277v-56.958727H103.093072a46.301216 46.301216 0 0 1-46.134344-46.134345v-162.198876H0.044499v162.198876c0 56.958728 46.723956 103.093072 103.093072 103.093072z m380.132758 0v-56.958727h162.51037a46.31234 46.31234 0 0 0 46.178843-46.134345v-162.198876h56.958728v162.198876c0 56.958728-46.723956 103.093072-103.093072 103.093072z m0 0" fill="#6B768F" p-id="6714"></path><path d="M104.005302 547.2599h703.26229v62.087238H104.005302z" fill="#6B768F" p-id="6715"></path></svg>