<svg width="1024" height="1024" viewBox="0 0 1024 1024" fill="none" xmlns="http://www.w3.org/2000/svg">
<path d="M120.294 584.747C120.294 551.609 147.157 524.747 180.294 524.747H316.147V894.293H180.294C147.157 894.293 120.294 867.43 120.294 834.293V584.747Z" fill="url(#paint0_linear_8191_4210)"/>
<rect x="316.149" y="524.747" width="195.853" height="369.547" fill="url(#paint1_linear_8191_4210)"/>
<rect x="512" y="524.747" width="195.853" height="369.547" fill="url(#paint2_linear_8191_4210)"/>
<path d="M707.852 524.747H843.705C876.842 524.747 903.705 551.609 903.705 584.747V834.293C903.705 867.43 876.842 894.293 843.705 894.293H707.852V524.747Z" fill="url(#paint3_linear_8191_4210)"/>
<rect x="120.294" y="524.747" width="783.412" height="203.627" rx="55" fill="white" fill-opacity="0.48"/>
<path d="M781.507 153.91C773.901 146.241 764.852 140.153 754.882 135.999C744.912 131.845 734.218 129.707 723.417 129.707C712.616 129.707 701.922 131.845 691.952 135.999C681.982 140.153 672.933 146.241 665.328 153.91L607.232 212.006L584.622 189.395C571.721 176.495 552.352 176.495 539.401 189.395L513.588 212.006C500.675 224.918 500.675 244.275 513.588 257.226L675.012 418.613C687.913 431.514 707.282 431.514 720.233 418.613L742.843 396.003C755.756 383.09 755.756 363.733 742.843 350.782L723.486 328.172L781.57 270.089C789.241 262.483 795.329 253.433 799.485 243.462C803.64 233.491 805.779 222.795 805.779 211.993C805.779 201.191 803.64 190.495 799.485 180.524C795.329 170.553 789.241 161.503 781.57 153.897" fill="url(#paint4_linear_8191_4210)"/>
<path d="M349.032 470.19C281.691 537.543 315.958 570.039 264.608 644.791C262.117 648.39 260.966 652.748 261.353 657.108C261.741 661.468 263.644 665.554 266.731 668.658C269.835 671.742 273.92 673.644 278.278 674.034C282.637 674.424 286.995 673.277 290.597 670.793C365.362 619.43 397.87 653.697 465.199 586.356L629.751 421.804L513.635 305.562L349.032 470.19Z" fill="url(#paint5_linear_8191_4210)"/>
<g filter="url(#filter0_di_8191_4210)">
<rect x="562.243" y="158.081" width="299.16" height="108.215" rx="24" transform="rotate(45 562.243 158.081)" fill="url(#paint6_linear_8191_4210)"/>
</g>
<defs>
<filter id="filter0_di_8191_4210" x="491.664" y="168.023" width="276.175" height="276.175" filterUnits="userSpaceOnUse" color-interpolation-filters="sRGB">
<feFlood flood-opacity="0" result="BackgroundImageFix"/>
<feColorMatrix in="SourceAlpha" type="matrix" values="0 0 0 0 0 0 0 0 0 0 0 0 0 0 0 0 0 0 127 0" result="hardAlpha"/>
<feOffset dy="4"/>
<feGaussianBlur stdDeviation="2"/>
<feComposite in2="hardAlpha" operator="out"/>
<feColorMatrix type="matrix" values="0 0 0 0 0 0 0 0 0 0 0 0 0 0 0 0 0 0 0.25 0"/>
<feBlend mode="normal" in2="BackgroundImageFix" result="effect1_dropShadow_8191_4210"/>
<feBlend mode="normal" in="SourceGraphic" in2="effect1_dropShadow_8191_4210" result="shape"/>
<feColorMatrix in="SourceAlpha" type="matrix" values="0 0 0 0 0 0 0 0 0 0 0 0 0 0 0 0 0 0 127 0" result="hardAlpha"/>
<feOffset dy="7"/>
<feGaussianBlur stdDeviation="4.7"/>
<feComposite in2="hardAlpha" operator="arithmetic" k2="-1" k3="1"/>
<feColorMatrix type="matrix" values="0 0 0 0 1 0 0 0 0 1 0 0 0 0 1 0 0 0 0.75 0"/>
<feBlend mode="normal" in2="shape" result="effect2_innerShadow_8191_4210"/>
</filter>
<linearGradient id="paint0_linear_8191_4210" x1="218.221" y1="524.747" x2="218.221" y2="894.293" gradientUnits="userSpaceOnUse">
<stop stop-color="#EA6322"/>
<stop offset="1" stop-color="#DC4308"/>
</linearGradient>
<linearGradient id="paint1_linear_8191_4210" x1="414.075" y1="524.747" x2="414.075" y2="894.293" gradientUnits="userSpaceOnUse">
<stop stop-color="#FEE900"/>
<stop offset="1" stop-color="#FFC000"/>
</linearGradient>
<linearGradient id="paint2_linear_8191_4210" x1="609.927" y1="524.747" x2="609.927" y2="894.293" gradientUnits="userSpaceOnUse">
<stop stop-color="#64E563"/>
<stop offset="1" stop-color="#58BC18"/>
</linearGradient>
<linearGradient id="paint3_linear_8191_4210" x1="805.778" y1="524.747" x2="805.778" y2="894.293" gradientUnits="userSpaceOnUse">
<stop stop-color="#24A9E8"/>
<stop offset="1" stop-color="#037CD6"/>
</linearGradient>
<linearGradient id="paint4_linear_8191_4210" x1="654.841" y1="129.707" x2="654.841" y2="428.288" gradientUnits="userSpaceOnUse">
<stop stop-color="#AAA9AE"/>
<stop offset="1" stop-color="#454447"/>
</linearGradient>
<linearGradient id="paint5_linear_8191_4210" x1="445.516" y1="305.562" x2="445.516" y2="674.109" gradientUnits="userSpaceOnUse">
<stop stop-color="#FFCEBA"/>
<stop offset="1" stop-color="#E14E11"/>
</linearGradient>
<linearGradient id="paint6_linear_8191_4210" x1="562.243" y1="212.189" x2="861.403" y2="212.189" gradientUnits="userSpaceOnUse">
<stop stop-color="#D9D9D9"/>
<stop offset="0.0501209" stop-color="#DBDBDB"/>
<stop offset="0.157325" stop-color="#EDEDED"/>
<stop offset="0.852778" stop-color="#EDEDED"/>
<stop offset="0.953196" stop-color="#DBDBDB"/>
<stop offset="1" stop-color="#D9D9D9"/>
</linearGradient>
</defs>
</svg>
