<svg width="1024" height="1024" viewBox="0 0 1024 1024" fill="none" xmlns="http://www.w3.org/2000/svg">
<path d="M818.654 189.715H216.081C173.256 189.715 138.539 225.205 138.539 268.983V751.964C138.539 795.743 173.256 831.232 216.081 831.232H818.654C861.479 831.232 896.195 795.743 896.195 751.964V268.983C896.195 225.205 861.479 189.715 818.654 189.715Z" fill="url(#paint0_linear_8191_6126)"/>
<path d="M382.398 694.366C532.349 660.896 703.511 679.02 887.188 789.074C874.167 814.152 848.362 831.231 818.653 831.231H216.081C188.094 831.231 163.57 816.074 149.936 793.352C219.568 748.733 297.58 713.298 382.398 694.366Z" fill="white" fill-opacity="0.27"/>
<path d="M818.653 863.652H707.653C705.395 863.696 703.152 863.276 701.056 862.417C698.96 861.559 697.053 860.28 695.449 858.655C693.845 857.03 692.576 855.093 691.717 852.959C690.858 850.824 690.426 848.535 690.448 846.226V815.994C690.448 813.731 690.885 811.49 691.735 809.4C692.585 807.31 693.83 805.412 695.399 803.816C696.968 802.219 698.831 800.955 700.879 800.096C702.928 799.237 705.122 798.801 707.336 798.812H818.336C824.354 798.812 830.314 797.6 835.874 795.246C841.434 792.891 846.486 789.44 850.741 785.09C854.996 780.74 858.372 775.576 860.675 769.892C862.978 764.208 864.163 758.116 864.163 751.964V697.012C864.163 692.447 865.932 688.068 869.082 684.833C872.232 681.598 876.507 679.769 880.972 679.748H910.704C915.177 679.769 919.46 681.595 922.623 684.828C925.785 688.061 927.571 692.44 927.592 697.012V751.964C927.592 781.53 916.125 809.889 895.704 830.825C875.283 851.761 847.575 863.566 818.653 863.652Z" fill="url(#paint1_linear_8191_6126)"/>
<path d="M911.021 325.88H881.289C876.823 325.859 872.548 324.031 869.398 320.795C866.248 317.56 864.48 313.181 864.48 308.617V268.983C864.48 262.831 863.295 256.739 860.992 251.055C858.689 245.371 855.313 240.207 851.058 235.857C846.802 231.507 841.75 228.056 836.19 225.702C830.63 223.347 824.671 222.136 818.653 222.136H707.653C703.174 222.136 698.878 220.317 695.711 217.079C692.544 213.841 690.765 209.45 690.765 204.872V174.559C690.764 170.036 692.499 165.693 695.598 162.465C698.697 159.236 702.912 157.38 707.335 157.295H818.336C847.312 157.295 875.102 169.062 895.591 190.008C916.081 210.953 927.592 239.361 927.592 268.983V308.617C927.572 313.133 925.83 317.464 922.735 320.688C919.641 323.912 915.438 325.775 911.021 325.88Z" fill="url(#paint2_linear_8191_6126)"/>
<path d="M153.365 325.88H123.712C119.233 325.88 114.938 324.062 111.771 320.824C108.603 317.586 106.824 313.195 106.824 308.617V268.983C106.824 239.361 118.335 210.953 138.825 190.008C159.314 169.062 187.104 157.295 216.08 157.295H327.08C329.295 157.295 331.487 157.742 333.531 158.611C335.576 159.479 337.432 160.752 338.994 162.356C340.556 163.96 341.792 165.864 342.632 167.958C343.472 170.052 343.9 172.295 343.889 174.559V204.872C343.911 209.387 342.193 213.73 339.106 216.961C336.02 220.191 331.814 222.05 327.398 222.136H216.397C210.353 222.093 204.359 223.273 198.763 225.608C193.166 227.943 188.076 231.387 183.787 235.742C179.498 240.096 176.094 245.275 173.771 250.98C171.449 256.685 170.253 262.803 170.253 268.983V308.617C170.253 313.195 168.474 317.586 165.307 320.824C162.139 324.062 157.844 325.88 153.365 325.88Z" fill="url(#paint3_linear_8191_6126)"/>
<path d="M327.398 863.652H216.397C202.023 863.695 187.782 860.837 174.489 855.244C161.197 849.65 149.116 841.43 138.937 831.054C128.758 820.679 120.682 808.352 115.171 794.78C109.661 781.209 106.824 766.659 106.824 751.964V697.012C106.824 692.433 108.603 688.042 111.771 684.805C114.938 681.567 119.233 679.748 123.712 679.748H153.365C157.844 679.748 162.139 681.567 165.307 684.805C168.474 688.042 170.253 692.433 170.253 697.012V751.964C170.253 764.389 175.081 776.305 183.675 785.09C192.27 793.876 203.926 798.812 216.08 798.812H327.08C331.538 798.812 335.814 800.622 338.966 803.844C342.118 807.067 343.889 811.437 343.889 815.994V846.226C343.932 850.764 342.226 855.136 339.139 858.397C336.053 861.658 331.835 863.546 327.398 863.652Z" fill="url(#paint4_linear_8191_6126)"/>
<path d="M780.7 617.323H723.366L687.78 540.673H671.117V617.323H621.691V411.38H701.337C745.961 411.38 769.967 443.776 769.967 477.617C769.967 505.674 753.021 523.318 737.205 531.417L780.7 617.323ZM720.542 477.617C720.542 466.915 712.634 456.792 699.077 456.792H671.117V498.443H699.077C712.634 498.443 720.542 488.319 720.542 477.617Z" fill="url(#paint5_linear_8191_6126)"/>
<path d="M595.601 551.954C588.258 597.366 557.473 619.059 519.345 619.059C495.903 619.059 478.11 610.96 463.424 595.919C442.241 574.226 443.089 545.301 443.089 514.352C443.089 483.402 442.241 454.478 463.424 432.784C478.11 417.743 495.903 409.645 519.345 409.645C557.473 409.645 588.258 431.338 595.601 476.75H545.328C542.222 465.18 536.008 454.767 519.627 454.767C510.59 454.767 503.811 458.527 500.14 463.444C495.621 469.519 492.514 476.75 492.514 514.352C492.514 551.954 495.621 559.185 500.14 565.259C503.811 570.176 510.59 573.937 519.627 573.937C536.008 573.937 542.222 563.524 545.328 551.954H595.601Z" fill="url(#paint6_linear_8191_6126)"/>
<path d="M415.512 514.352C415.512 545.301 416.359 574.226 395.177 595.919C380.49 610.96 363.544 619.059 338.973 619.059C314.402 619.059 297.456 610.96 282.769 595.919C261.587 574.226 262.434 545.301 262.434 514.352C262.434 483.402 261.587 454.478 282.769 432.784C297.456 417.743 314.402 409.645 338.973 409.645C363.544 409.645 380.49 417.743 395.177 432.784C416.359 454.478 415.512 483.402 415.512 514.352ZM366.086 514.352C366.086 476.75 363.262 469.808 358.743 463.734C355.071 458.816 348.011 454.767 338.973 454.767C329.935 454.767 322.874 458.816 319.203 463.734C314.684 469.808 311.86 476.75 311.86 514.352C311.86 551.954 314.684 558.607 319.203 564.681C322.874 569.598 329.935 573.937 338.973 573.937C348.011 573.937 355.071 569.598 358.743 564.681C363.262 558.607 366.086 551.954 366.086 514.352Z" fill="url(#paint7_linear_8191_6126)"/>
<defs>
<linearGradient id="paint0_linear_8191_6126" x1="517.367" y1="189.715" x2="517.367" y2="831.232" gradientUnits="userSpaceOnUse">
<stop stop-color="#F9FBFF"/>
<stop offset="1" stop-color="#AFCFFF"/>
</linearGradient>
<linearGradient id="paint1_linear_8191_6126" x1="809.02" y1="679.748" x2="809.02" y2="863.655" gradientUnits="userSpaceOnUse">
<stop stop-color="#7CB0FF"/>
<stop offset="1" stop-color="#3273FF"/>
</linearGradient>
<linearGradient id="paint2_linear_8191_6126" x1="809.178" y1="157.295" x2="809.178" y2="325.88" gradientUnits="userSpaceOnUse">
<stop stop-color="#7CB0FF"/>
<stop offset="1" stop-color="#3273FF"/>
</linearGradient>
<linearGradient id="paint3_linear_8191_6126" x1="225.357" y1="157.295" x2="225.357" y2="325.88" gradientUnits="userSpaceOnUse">
<stop stop-color="#7CB0FF"/>
<stop offset="1" stop-color="#3273FF"/>
</linearGradient>
<linearGradient id="paint4_linear_8191_6126" x1="225.357" y1="679.748" x2="225.357" y2="863.653" gradientUnits="userSpaceOnUse">
<stop stop-color="#7CB0FF"/>
<stop offset="1" stop-color="#3273FF"/>
</linearGradient>
<linearGradient id="paint5_linear_8191_6126" x1="517.221" y1="319.378" x2="517.221" y2="674.955" gradientUnits="userSpaceOnUse">
<stop stop-color="#7CB0FF"/>
<stop offset="1" stop-color="#3273FF"/>
</linearGradient>
<linearGradient id="paint6_linear_8191_6126" x1="517.221" y1="319.378" x2="517.221" y2="674.956" gradientUnits="userSpaceOnUse">
<stop stop-color="#7CB0FF"/>
<stop offset="1" stop-color="#3273FF"/>
</linearGradient>
<linearGradient id="paint7_linear_8191_6126" x1="517.223" y1="319.378" x2="517.223" y2="674.956" gradientUnits="userSpaceOnUse">
<stop stop-color="#7CB0FF"/>
<stop offset="1" stop-color="#3273FF"/>
</linearGradient>
</defs>
</svg>
