<svg width="1024" height="1024" viewBox="0 0 1024 1024" fill="none" xmlns="http://www.w3.org/2000/svg">
<path d="M841.979 289.343C848.453 295.817 852.09 304.597 852.09 313.753V378.464C852.09 387.3 859.254 394.464 868.09 394.464H898.742C907.578 394.464 914.742 387.3 914.742 378.464V313.753C914.742 287.981 904.504 263.265 886.281 245.042C868.058 226.818 843.342 216.581 817.57 216.581H637.628C628.791 216.581 621.628 223.745 621.628 232.581V263.232C621.628 272.069 628.791 279.232 637.628 279.232H817.57C826.725 279.233 835.506 282.87 841.979 289.343Z" fill="url(#paint0_linear_8191_6404)"/>
<path d="M194.132 642.345V790.216C194.132 815.987 204.37 840.703 222.593 858.926C240.817 877.149 265.533 887.388 291.304 887.388H356.014C364.851 887.388 372.014 880.224 372.014 871.388V840.736C372.014 831.9 364.851 824.736 356.014 824.736H291.304C282.149 824.736 273.368 821.099 266.894 814.625C260.421 808.151 256.783 799.371 256.783 790.216L256.783 642.345C256.783 633.508 249.62 626.345 240.783 626.345H210.132C201.295 626.345 194.132 633.508 194.132 642.345Z" fill="url(#paint1_linear_8191_6404)"/>
<path d="M529.897 136.612H141.499C113.896 136.612 91.5186 162.601 91.5186 194.66V548.345C91.5186 580.404 113.896 606.393 141.499 606.393H529.897C557.501 606.393 579.878 580.404 579.878 548.345V194.66C579.878 162.601 557.501 136.612 529.897 136.612Z" fill="url(#paint2_linear_8191_6404)"/>
<path d="M376.768 334.113C376.768 327.182 374.014 320.534 369.113 315.633C364.211 310.732 357.564 307.978 350.632 307.978H300.78C293.849 307.978 287.201 310.732 282.3 315.633C277.399 320.534 274.645 327.182 274.645 334.113V372.712H376.768V334.113ZM424.201 482.46H376.768V420.145H274.645V482.46H227.212V334.113C227.212 314.602 234.963 295.89 248.76 282.093C262.557 268.296 281.269 260.545 300.78 260.545H350.632C370.144 260.545 388.857 268.296 402.653 282.093C416.45 295.89 424.201 314.602 424.201 334.113V482.46Z" fill="url(#paint3_linear_8191_6404)"/>
<path d="M882.502 417.606H494.104C466.5 417.606 444.123 443.595 444.123 475.654V829.34C444.123 861.398 466.5 887.387 494.104 887.387H882.502C910.105 887.387 932.482 861.398 932.482 829.34V475.654C932.482 443.595 910.105 417.606 882.502 417.606Z" fill="url(#paint4_linear_8191_6404)"/>
<path d="M709.303 543.401H667.298V576.512H579.004V618.517H731.856C727.455 646.145 714.446 671.888 694.414 691.921C692.426 693.909 690.381 695.827 688.284 697.675C674.755 685.751 663.725 671.159 655.933 654.734L646.932 635.758L608.98 653.76L617.981 672.736C626.441 690.569 637.804 706.758 651.523 720.685C635.359 727.446 617.867 731.026 600.006 731.026H579.004V773.031H600.006C631.287 773.031 661.706 764.68 688.285 749.215C715.067 764.8 745.535 773.037 776.598 773.031L797.601 773.027L797.593 731.022L776.59 731.026C758.819 731.03 741.303 727.486 725.045 720.686C752.431 692.886 769.637 656.896 774.262 618.517H797.597V576.512H709.303V543.401Z" fill="url(#paint5_linear_8191_6404)"/>
<defs>
<linearGradient id="paint0_linear_8191_6404" x1="768.185" y1="216.581" x2="768.185" y2="394.464" gradientUnits="userSpaceOnUse">
<stop stop-color="#7CABFF"/>
<stop offset="1" stop-color="#326CFF"/>
</linearGradient>
<linearGradient id="paint1_linear_8191_6404" x1="283.073" y1="594.273" x2="283.073" y2="887.387" gradientUnits="userSpaceOnUse">
<stop stop-color="#7CABFF"/>
<stop offset="1" stop-color="#326CFF"/>
</linearGradient>
<linearGradient id="paint2_linear_8191_6404" x1="335.698" y1="136.612" x2="335.698" y2="606.393" gradientUnits="userSpaceOnUse">
<stop stop-color="#F9FBFF"/>
<stop offset="1" stop-color="#AFCFFF"/>
</linearGradient>
<linearGradient id="paint3_linear_8191_6404" x1="97.7882" y1="161.408" x2="97.7882" y2="544.561" gradientUnits="userSpaceOnUse">
<stop stop-color="#7CB0FF"/>
<stop offset="1" stop-color="#3273FF"/>
</linearGradient>
<linearGradient id="paint4_linear_8191_6404" x1="688.303" y1="417.606" x2="688.303" y2="887.387" gradientUnits="userSpaceOnUse">
<stop stop-color="#F9FBFF"/>
<stop offset="1" stop-color="#AFCFFF"/>
</linearGradient>
<linearGradient id="paint5_linear_8191_6404" x1="435.383" y1="440.818" x2="435.383" y2="837.291" gradientUnits="userSpaceOnUse">
<stop stop-color="#7CB0FF"/>
<stop offset="1" stop-color="#3273FF"/>
</linearGradient>
</defs>
</svg>
